<?xml version="1.0" encoding="utf-8"?>
<!-- Generator: Adobe Illustrator 23.1.0, SVG Export Plug-In . SVG Version: 6.00 Build 0)  -->
<svg version="1.1" id="Слой_1" xmlns="http://www.w3.org/2000/svg" xmlns:xlink="http://www.w3.org/1999/xlink" x="0px" y="0px"
	 viewBox="0 0 294.7 255.2" style="enable-background:new 0 0 294.7 255.2;" xml:space="preserve">
<style type="text/css">
	.st0{fill-rule:evenodd;clip-rule:evenodd;fill:#253A3A;}
	.st1{fill:#FFFFFF;}
</style>
<title>logo-totoro</title>
<path class="st0" d="M73.7,127.6L147.4,0L221,127.6l73.7,127.6H0L73.7,127.6z"/>
<path class="st1" d="M138.2,241.5c-15.8-1.6-34.3-11.6-44.5-23.9c-11.1-13.4-16.6-28.7-16.5-46.4c0.1-19.8,6.9-36,21.2-50.1
	c9.3-8.8,20.6-15.1,33-18.3c8.5-2,25.1-1.7,34,0.6c24.4,6.3,44.8,27.2,50.9,52.3c2,8.4,1.8,25-0.5,33.9c-6.3,24.2-26.4,44.4-50,50.3
	C156.8,242.1,147.4,242.7,138.2,241.5L138.2,241.5z M150.7,236.7c4-4-0.7-10.8-5.7-8.1c-3,1.6-3.1,6.6-0.3,8.2
	S149,238.4,150.7,236.7z M119.8,228.4c4-4-0.7-10.8-5.7-8.1c-4.2,2.3-2.4,9.5,2.4,9.5C117.7,229.8,118.9,229.3,119.8,228.4
	L119.8,228.4z M181.2,228.2c2.6-1.9,1.8-7.2-1.2-8.4c-4.7-1.8-8.7,4.9-5,8.5C176.9,230.3,178.6,230.2,181.2,228.2L181.2,228.2z
	 M161.7,221.2c11.4-3.4,22.1-11.1,28.4-20.5c11.7-17.1,11.7-41.2,0-58.4c-15.7-23-49.1-29.4-71.6-13.8c-22,15.3-28.9,42.1-17,66.2
	C112.4,216.7,138.6,228.2,161.7,221.2z M133.5,217.4c-12.4-4-24.2-14.6-29.8-26.6c-2.8-6-4.1-12.6-4-19.3c-0.1-7,1.5-14,4.6-20.3
	c4.7-9.5,14.3-19,23.8-23.4c6.1-2.8,8.3-3.2,19.4-3.2c11.7,0,13,0.3,20.3,3.8c9.5,4.7,18.9,14.3,23.4,23.8
	c2.8,6.1,4.2,12.7,4.1,19.3c-0.1,7-1.7,13.9-4.6,20.2c-4.9,9.9-12.9,17.9-22.8,22.9c-6.6,3.2-9.1,3.8-18.4,4.1
	C142.5,219,136.7,218.5,133.5,217.4L133.5,217.4z M164.9,209.1c8.1-3.7,16.4-12.1,20.4-20.6c2.6-5.7,3.1-8.4,3.1-16.9
	s-0.5-11.2-3.1-16.9c-4.5-9.1-11.8-16.4-20.9-20.8c-9.7-4.4-24.1-4.4-33.8,0c-9.1,4.4-16.5,11.8-20.9,20.9c-4.5,9.6-4.4,23.9,0,33.8
	c5.2,11.3,16.2,20.5,27.9,23.5C144.5,213.7,157.7,212.3,164.9,209.1L164.9,209.1z M148.6,204.1l5.3-2.2c7.7-3.2,21.1-14.5,24.5-27.8
	l1.9-7.6l1,3.9c2.5,15.8-9.7,31.8-26.6,34c-2,0.3-4.1,0.2-6.1-0.2L148.6,204.1z M117.7,159.5c-0.2-7.6,4.9-14.4,12.2-16.5
	c5.9-1.6,7.1-0.6,1.9,1.6c-8.6,3.9-10.4,8.8-12.9,16.3C118,162.3,117.7,162,117.7,159.5z M98,205.4c2.4-2.5,2.4-3.6-0.5-6.5
	c-1.9-1.9-2.9-2.1-4.8-1.1c-3.2,1.7-4,4-2.3,7S95.4,208,98,205.4L98,205.4z M204.5,204.8c1.6-3,0.9-5.3-2.3-7
	c-1.9-1-2.9-0.8-4.8,1.1c-2.9,2.9-3,4-0.5,6.5C199.4,208,203,207.7,204.5,204.8L204.5,204.8z M90.4,174.5c1.2-1.4,1.2-2.5,0.2-4.8
	c-2.2-4.8-9.7-3.4-9.7,1.8C80.8,176,87.4,178.1,90.4,174.5L90.4,174.5z M213,173.4c1-2.3,1-3.4-0.2-4.8c-3.8-4.6-11.2,0.1-8.4,5.3
	c1.3,2.3,4.2,3.1,6.5,1.8C211.9,175.2,212.6,174.4,213,173.4L213,173.4z M98.6,143.1c1.6-3,1.6-3.1-0.6-5.3
	c-2.8-2.8-6.3-2.3-7.8,1.1c-1,2.3-1,3.4,0.2,4.8C92.4,146.2,97.2,145.9,98.6,143.1z M204.9,142.8c1.8-2.9-0.4-6.1-4.4-6.6
	s-6.3,3.3-4.4,7C197.8,146.1,203,145.9,204.9,142.8L204.9,142.8z M118.9,122.8c2.8-1.5,3-6.2,0.5-8.3c-1.4-1.2-2.5-1.2-4.8-0.2
	c-3.3,1.5-3.8,5.1-1.1,7.9C115.8,124.3,116,124.4,118.9,122.8L118.9,122.8z M181.2,122.1c2.6-2.6,2.3-6.1-0.6-7.7s-5.3-0.9-7,2.3
	c-1.1,1.9-0.8,2.9,1.1,4.8C177.6,124.5,178.7,124.6,181.2,122.1L181.2,122.1z M149.9,114.4c2.8-1.5,3-6.2,0.5-8.3
	c-1.4-1.1-2.5-1.2-4.8-0.2c-3.5,1.6-4,6.6-0.9,8.4C147.3,115.9,147.1,115.9,149.9,114.4L149.9,114.4z"/>
</svg>
