<svg xmlns="http://www.w3.org/2000/svg"
     viewBox="0 0 244.17 231.5">
    <defs>
        <style>.a{fill:#e0eb8d;}.b{fill:#bad451;}</style>
    </defs>
    <title>logo</title>
    <rect class="a"
          x="19.67"
          width="18"
          height="229"
          rx="9" />
    <rect class="a"
          x="58.17"
          y="0.5"
          width="18"
          height="229"
          rx="9" />
    <rect class="a"
          x="95.17"
          y="2.5"
          width="18"
          height="229"
          rx="9" />
    <rect class="a"
          x="131.67"
          width="18"
          height="229"
          rx="9" />
    <rect class="a"
          x="170.17"
          y="0.5"
          width="18"
          height="229"
          rx="9" />
    <rect class="a"
          x="209.17"
          y="1.5"
          width="18"
          height="229"
          rx="9" />
    <path class="b"
          d="M5,45H5a9,9,0,0,1,9-9H50.4c9.55,0,16.43.66,24.35.46C101.28,35.77,104.2,30.14,125,30c18.61-.13,16.8,4.38,38.65,4.61,11.2.12,9.39-1.09,39.35-2.61,32.49-1.65,8.13,1.11,36,4a10.4,10.4,0,0,1,6.36,2.64A8.94,8.94,0,0,1,248,45h0a37.29,37.29,0,0,1-9,9c-6,4.21-15.06,7.71-38,6-18.07-1.34-21.24-4.17-37.54-6-10.91-1.23-20-.84-37.6,0C73.07,56.5,67.18,62.78,51,59c0,0-20.86-4.87-37-5C14,54,13.92,54,5,45Z"
          transform="translate(-3.83 -12.5)" />
    <path class="b"
          d="M4.83,93h0a31.27,31.27,0,0,1,9-9c9.29-6,18.83-4.57,37.17-4,8.42.26,15,.17,28,0,28.41-.38,29.15-2.77,45.83-2,25.12,1.16,23.41,6.58,38.65,4.61C178,80.74,188.38,74.71,202,75c1.48,0,12.42.36,20.15,5.08.49.3.89.56,1.63,1,1.52.82,4.64,1.88,15.05,3a10.42,10.42,0,0,1,6.37,2.64A8.93,8.93,0,0,1,247.83,93h0a25.85,25.85,0,0,1-9,9c-10.18,5.86-19.92.92-37.83-1-5.66-.61-1.76.2-37.7,1-20.86.46-31.42.68-37.61,0-14.33-1.58-17.12-3.86-30.69-4-7.77-.08-8.9.64-23,1-19.06.48-15.85-.88-24,0-5.24.56-27.58,3.38-34.17,3Z"
          transform="translate(-3.83 -12.5)" />
    <path class="b"
          d="M259,62"
          transform="translate(-3.83 -12.5)" />
    <path class="b"
          d="M4.83,143.16h0a31.27,31.27,0,0,1,9-9c9.29-6,18.83-4.57,37.17-4,11.74.37,1.09-.42,28,0,36.64.58,35.81,1.7,47,.84,6.32-.49,1.63-.46,39-6,0,0,20.32-3,37,.16a54.71,54.71,0,0,1,7,1.84c2.94,1,4.09,1.78,7,3a47.35,47.35,0,0,0,9,3c5.09,1,6.3,0,13.83,1.16,2.31.37,4.58.85,6.37,2.64a9,9,0,0,1,2.63,6.36h0a25.85,25.85,0,0,1-9,9c-10.18,5.86-19.92.92-37.83-1-14.11-1.51-25.05-.33-37.7,1-24.51,2.59-23.91,6.75-35.3,4.84-8.73-1.46-14-4.74-33-8.84A41.26,41.26,0,0,0,82,147c-6.06.52-8.34,2.24-16,4-1.33.31-2,.42-15,2-18.55,2.25-20,2.36-23,2a140.41,140.41,0,0,1-14.17-2.84Z"
          transform="translate(-3.83 -12.5)" />
    <path class="b"
          d="M65,106"
          transform="translate(-3.83 -12.5)" />
    <path class="b"
          d="M3.83,200.49h0a31.27,31.27,0,0,1,9-9c9.29-6,18.83-4.57,37.17-4a36.2,36.2,0,0,0,6.13.08A32.9,32.9,0,0,0,68,184c8.93-4.1,17,2.91,34,5,2.44.3,9.33,0,23-.67,21.76-1,32.64-1.56,42-2.33,0,0,25.56-2.1,35,0a52.06,52.06,0,0,0,6,1,62.88,62.88,0,0,0,7,.33c7.68,0,7.47-1.07,10-.33,3.6,1.05,3.64,3,7.82,3.92,2,.43,2.17.12,5,.57,2.31.37,4.58.85,6.37,2.64a8.93,8.93,0,0,1,2.63,6.36h0a25.85,25.85,0,0,1-9,9c-7.44,4.28-15.83,4-37.83-1-27.59-6.32-26.67-8.62-36-8.49-16.18.22-15,7.08-34,8a159.58,159.58,0,0,1-36-2.51,40.9,40.9,0,0,0-13-1.16c-6.06.51-8.34,2.24-16,4-1.33.3-2,.42-15,2-18.55,2.25-20,2.36-23,2a140.41,140.41,0,0,1-14.17-2.84c-.4-.36-1-.89-1.83-1.49a33.48,33.48,0,0,0-3-2C6.82,205.26,5.27,203.78,3.83,200.49Z"
          transform="translate(-3.83 -12.5)" />
</svg>